# xmcd CD database file
#
# Track frame offsets:
#	183
#	174708
#	205858
#	296433
#
# Disc length: 4325 seconds
#
# Revision: 0
# Processed by: cddbd v1.4PL0 Copyright (c) Steve Scherf et al.
# Submitted via: CDex 1.50Beta3
#
DISCID=3610e304
DTITLE=William Parker - In Order To Survive
DYEAR=1995
DGENRE=Jazz
TTITLE0=Testimony of No Future
TTITLE1=Anast in Crisis Mouth full of Fresh Cut Flowers
TTITLE2=Testimony of The Stir Pot
TTITLE3=The Squrae Sun
EXTD=YEAR: 1995
EXTT0=
EXTT1=
EXTT2=
EXTT3=
PLAYORDER=
